<svg xmlns="http://www.w3.org/2000/svg" xmlns:xlink="http://www.w3.org/1999/xlink" width="6912" zoomAndPan="magnify" viewBox="0 0 5184 2592.000001" height="3456" preserveAspectRatio="xMidYMid meet" version="1.0"><defs><g/><clipPath id="id1"><path d="M 4 978.519531 L 768 978.519531 L 768 1861.300781 L 4 1861.300781 Z M 4 978.519531 " clip-rule="nonzero"/></clipPath><clipPath id="id2"><path d="M 778 670.011719 L 1806 670.011719 L 1806 1861.058594 L 778 1861.058594 Z M 778 670.011719 " clip-rule="nonzero"/></clipPath><clipPath id="id3"><path d="M 102.464844 1231.542969 L 326.664062 1231.542969 L 326.664062 1455.742188 L 102.464844 1455.742188 Z M 102.464844 1231.542969 " clip-rule="nonzero"/></clipPath><clipPath id="id4"><path d="M 272.71875 1231.542969 L 496.917969 1231.542969 L 496.917969 1455.742188 L 272.71875 1455.742188 Z M 272.71875 1231.542969 " clip-rule="nonzero"/></clipPath><clipPath id="id5"><path d="M 448.515625 1231.542969 L 672.714844 1231.542969 L 672.714844 1455.742188 L 448.515625 1455.742188 Z M 448.515625 1231.542969 " clip-rule="nonzero"/></clipPath><clipPath id="id6"><path d="M 921.007812 1038.855469 L 1187.242188 1038.855469 L 1187.242188 1305.089844 L 921.007812 1305.089844 Z M 921.007812 1038.855469 " clip-rule="nonzero"/></clipPath><clipPath id="id7"><path d="M 1155.335938 1038.855469 L 1421.570312 1038.855469 L 1421.570312 1305.089844 L 1155.335938 1305.089844 Z M 1155.335938 1038.855469 " clip-rule="nonzero"/></clipPath><clipPath id="id8"><path d="M 1402.820312 1038.855469 L 1669.054688 1038.855469 L 1669.054688 1305.089844 L 1402.820312 1305.089844 Z M 1402.820312 1038.855469 " clip-rule="nonzero"/></clipPath></defs><g clip-path="url(#id1)"><path fill="#ff1616" d="M 767.828125 1359.539062 C 767.828125 1570.039062 597.097656 1740.671875 386.480469 1740.671875 C 379.308594 1740.671875 372.125 1740.097656 365.25 1739.804688 C 314.167969 1846.199219 185.910156 1860.824219 125.9375 1861.398438 C 118.769531 1861.398438 116.476562 1851.648438 123.074219 1848.210938 C 187.054688 1813.792969 214.894531 1746.972656 226.664062 1705.386719 C 95.820312 1645.160156 4.851562 1512.953125 4.851562 1359.527344 C 4.851562 1149.027344 175.582031 978.394531 386.492188 978.394531 C 597.097656 978.410156 767.828125 1149.042969 767.828125 1359.539062 Z M 767.828125 1359.539062 " fill-opacity="1" fill-rule="nonzero"/></g><path fill="#fff8ee" d="M 209.136719 1311.226562 C 182.445312 1311.226562 160.796875 1332.863281 160.796875 1359.539062 C 160.796875 1386.21875 182.445312 1407.855469 209.136719 1407.855469 C 235.832031 1407.855469 257.480469 1386.21875 257.480469 1359.539062 C 257.480469 1332.863281 235.832031 1311.226562 209.136719 1311.226562 Z M 209.136719 1311.226562 " fill-opacity="1" fill-rule="nonzero"/><path fill="#fff8ee" d="M 386.339844 1311.226562 C 359.644531 1311.226562 337.996094 1332.863281 337.996094 1359.539062 C 337.996094 1386.21875 359.644531 1407.855469 386.339844 1407.855469 C 413.03125 1407.855469 434.683594 1386.21875 434.683594 1359.539062 C 434.683594 1332.863281 413.046875 1311.226562 386.339844 1311.226562 Z M 386.339844 1311.226562 " fill-opacity="1" fill-rule="nonzero"/><path fill="#fff8ee" d="M 563.554688 1311.226562 C 536.859375 1311.226562 515.210938 1332.863281 515.210938 1359.539062 C 515.210938 1386.21875 536.859375 1407.855469 563.554688 1407.855469 C 590.25 1407.855469 611.898438 1386.21875 611.898438 1359.539062 C 611.898438 1332.863281 590.25 1311.226562 563.554688 1311.226562 Z M 563.554688 1311.226562 " fill-opacity="1" fill-rule="nonzero"/><g clip-path="url(#id2)"><path fill="#004aad" d="M 778.878906 1184.085938 C 778.878906 1468.089844 1008.605469 1698.308594 1292.003906 1698.308594 C 1301.652344 1698.308594 1311.316406 1697.535156 1320.570312 1697.140625 C 1389.304688 1840.6875 1561.882812 1860.417969 1642.578125 1861.191406 C 1652.222656 1861.191406 1655.308594 1848.039062 1646.433594 1843.402344 C 1560.339844 1796.964844 1522.878906 1706.808594 1507.046875 1650.703125 C 1683.101562 1569.441406 1805.507812 1391.066406 1805.507812 1184.066406 C 1805.507812 900.0625 1575.78125 669.839844 1291.984375 669.839844 C 1008.605469 669.859375 778.878906 900.078125 778.878906 1184.085938 Z M 778.878906 1184.085938 " fill-opacity="1" fill-rule="nonzero"/></g><path fill="#fff8ee" d="M 1530.628906 1118.898438 C 1566.546875 1118.898438 1595.675781 1148.089844 1595.675781 1184.085938 C 1595.675781 1220.078125 1566.546875 1249.273438 1530.628906 1249.273438 C 1494.710938 1249.273438 1465.578125 1220.078125 1465.578125 1184.085938 C 1465.578125 1148.089844 1494.710938 1118.898438 1530.628906 1118.898438 Z M 1530.628906 1118.898438 " fill-opacity="1" fill-rule="nonzero"/><path fill="#fff8ee" d="M 1292.191406 1118.898438 C 1328.113281 1118.898438 1357.242188 1148.089844 1357.242188 1184.085938 C 1357.242188 1220.078125 1328.113281 1249.273438 1292.191406 1249.273438 C 1256.273438 1249.273438 1227.144531 1220.078125 1227.144531 1184.085938 C 1227.144531 1148.089844 1256.253906 1118.898438 1292.191406 1118.898438 Z M 1292.191406 1118.898438 " fill-opacity="1" fill-rule="nonzero"/><path fill="#fff8ee" d="M 1053.738281 1118.898438 C 1089.65625 1118.898438 1118.789062 1148.089844 1118.789062 1184.085938 C 1118.789062 1220.078125 1089.65625 1249.273438 1053.738281 1249.273438 C 1017.820312 1249.273438 988.691406 1220.078125 988.691406 1184.085938 C 988.691406 1148.089844 1017.820312 1118.898438 1053.738281 1118.898438 Z M 1053.738281 1118.898438 " fill-opacity="1" fill-rule="nonzero"/><g fill="#ffffff" fill-opacity="1"><g transform="translate(1898.357705, 1663.039184)"><g/></g></g><g fill="#ffffff" fill-opacity="1"><g transform="translate(1993.816807, 1663.039184)"><g><path d="M 244.28125 5.3125 C 182.070312 5.3125 130.988281 -9.476562 91.03125 -39.0625 C 51.082031 -68.65625 29.585938 -111.015625 26.546875 -166.140625 L 185.109375 -166.140625 C 186.617188 -147.421875 192.175781 -133.765625 201.78125 -125.171875 C 211.394531 -116.578125 223.789062 -112.28125 238.96875 -112.28125 C 252.625 -112.28125 263.875 -115.691406 272.71875 -122.515625 C 281.570312 -129.347656 286 -138.832031 286 -150.96875 C 286 -166.644531 278.664062 -178.78125 264 -187.375 C 249.332031 -195.976562 225.5625 -205.585938 192.6875 -216.203125 C 157.789062 -227.835938 129.59375 -239.09375 108.09375 -249.96875 C 86.601562 -260.84375 67.890625 -276.773438 51.953125 -297.765625 C 36.023438 -318.753906 28.0625 -346.191406 28.0625 -380.078125 C 28.0625 -414.460938 36.660156 -443.921875 53.859375 -468.453125 C 71.054688 -492.984375 94.828125 -511.566406 125.171875 -524.203125 C 155.515625 -536.847656 189.90625 -543.171875 228.34375 -543.171875 C 290.550781 -543.171875 340.238281 -528.628906 377.40625 -499.546875 C 414.582031 -470.472656 434.4375 -429.632812 436.96875 -377.03125 L 275.375 -377.03125 C 274.875 -393.21875 269.941406 -405.359375 260.578125 -413.453125 C 251.222656 -421.546875 239.210938 -425.59375 224.546875 -425.59375 C 213.421875 -425.59375 204.316406 -422.300781 197.234375 -415.71875 C 190.160156 -409.144531 186.625 -399.789062 186.625 -387.65625 C 186.625 -377.539062 190.539062 -368.816406 198.375 -361.484375 C 206.21875 -354.148438 215.953125 -347.828125 227.578125 -342.515625 C 239.210938 -337.203125 256.410156 -330.503906 279.171875 -322.421875 C 313.054688 -310.785156 341 -299.273438 363 -287.890625 C 385 -276.515625 403.960938 -260.582031 419.890625 -240.09375 C 435.828125 -219.613281 443.796875 -193.695312 443.796875 -162.34375 C 443.796875 -130.476562 435.828125 -101.898438 419.890625 -76.609375 C 403.960938 -51.328125 380.953125 -31.351562 350.859375 -16.6875 C 320.765625 -2.019531 285.238281 5.3125 244.28125 5.3125 Z M 244.28125 5.3125 "/></g></g></g><g fill="#ffffff" fill-opacity="1"><g transform="translate(2414.717515, 1663.039184)"><g><path d="M 477.9375 -425.59375 L 477.9375 0 L 328.484375 0 L 328.484375 -60.6875 C 315.835938 -41.46875 298.390625 -25.914062 276.140625 -14.03125 C 253.890625 -2.144531 228.347656 3.796875 199.515625 3.796875 C 149.953125 3.796875 110.882812 -12.507812 82.3125 -45.125 C 53.738281 -77.75 39.453125 -122.132812 39.453125 -178.28125 L 39.453125 -425.59375 L 187.375 -425.59375 L 187.375 -197.25 C 187.375 -172.96875 193.820312 -153.875 206.71875 -139.96875 C 219.613281 -126.0625 236.6875 -119.109375 257.9375 -119.109375 C 279.675781 -119.109375 296.867188 -126.0625 309.515625 -139.96875 C 322.160156 -153.875 328.484375 -172.96875 328.484375 -197.25 L 328.484375 -425.59375 Z M 477.9375 -425.59375 "/></g></g></g><g fill="#ffffff" fill-opacity="1"><g transform="translate(2885.673838, 1663.039184)"><g><path d="M 18.203125 -213.171875 C 18.203125 -257.171875 26.164062 -295.609375 42.09375 -328.484375 C 58.03125 -361.359375 79.78125 -386.644531 107.34375 -404.34375 C 134.90625 -422.050781 165.628906 -430.90625 199.515625 -430.90625 C 228.847656 -430.90625 254.132812 -425.085938 275.375 -413.453125 C 296.625 -401.816406 313.0625 -386.140625 324.6875 -366.421875 L 324.6875 -425.59375 L 473.375 -425.59375 L 473.375 0 L 324.6875 0 L 324.6875 -59.171875 C 313.0625 -39.453125 296.5 -23.773438 275 -12.140625 C 253.507812 -0.503906 228.347656 5.3125 199.515625 5.3125 C 165.628906 5.3125 134.90625 -3.535156 107.34375 -21.234375 C 79.78125 -38.941406 58.03125 -64.359375 42.09375 -97.484375 C 26.164062 -130.609375 18.203125 -169.171875 18.203125 -213.171875 Z M 324.6875 -213.171875 C 324.6875 -240.484375 317.226562 -261.976562 302.3125 -277.65625 C 287.394531 -293.332031 269.0625 -301.171875 247.3125 -301.171875 C 225.0625 -301.171875 206.601562 -293.457031 191.9375 -278.03125 C 177.269531 -262.601562 169.9375 -240.984375 169.9375 -213.171875 C 169.9375 -185.859375 177.269531 -164.238281 191.9375 -148.3125 C 206.601562 -132.382812 225.0625 -124.421875 247.3125 -124.421875 C 269.0625 -124.421875 287.394531 -132.257812 302.3125 -147.9375 C 317.226562 -163.613281 324.6875 -185.359375 324.6875 -213.171875 Z M 324.6875 -213.171875 "/></g></g></g><g fill="#ffffff" fill-opacity="1"><g transform="translate(3352.07982, 1663.039184)"><g><path d="M 191.171875 -113.796875 L 357.3125 -113.796875 L 357.3125 0 L 42.484375 0 L 42.484375 -534.828125 L 191.171875 -534.828125 Z M 191.171875 -113.796875 "/></g></g></g><g fill="#ffffff" fill-opacity="1"><g transform="translate(3675.144485, 1663.039184)"><g><path d="M 240.484375 5.3125 C 198.003906 5.3125 159.945312 -3.535156 126.3125 -21.234375 C 92.675781 -38.941406 66.25 -64.234375 47.03125 -97.109375 C 27.8125 -129.984375 18.203125 -168.671875 18.203125 -213.171875 C 18.203125 -257.171875 27.9375 -295.609375 47.40625 -328.484375 C 66.882812 -361.359375 93.4375 -386.644531 127.0625 -404.34375 C 160.695312 -422.050781 198.757812 -430.90625 241.25 -430.90625 C 283.726562 -430.90625 321.78125 -422.050781 355.40625 -404.34375 C 389.039062 -386.644531 415.59375 -361.359375 435.0625 -328.484375 C 454.539062 -295.609375 464.28125 -257.171875 464.28125 -213.171875 C 464.28125 -169.171875 454.539062 -130.609375 435.0625 -97.484375 C 415.59375 -64.359375 388.914062 -38.941406 355.03125 -21.234375 C 321.144531 -3.535156 282.960938 5.3125 240.484375 5.3125 Z M 240.484375 -123.65625 C 261.222656 -123.65625 278.546875 -131.367188 292.453125 -146.796875 C 306.359375 -162.222656 313.3125 -184.347656 313.3125 -213.171875 C 313.3125 -242.003906 306.359375 -264.003906 292.453125 -279.171875 C 278.546875 -294.347656 261.476562 -301.9375 241.25 -301.9375 C 221.007812 -301.9375 204.0625 -294.347656 190.40625 -279.171875 C 176.757812 -264.003906 169.9375 -242.003906 169.9375 -213.171875 C 169.9375 -183.835938 176.507812 -161.582031 189.65625 -146.40625 C 202.800781 -131.238281 219.742188 -123.65625 240.484375 -123.65625 Z M 240.484375 -123.65625 "/></g></g></g><g fill="#ffffff" fill-opacity="1"><g transform="translate(4108.179955, 1663.039184)"><g><path d="M 199.515625 -430.90625 C 228.347656 -430.90625 253.507812 -425.085938 275 -413.453125 C 296.5 -401.816406 313.0625 -386.140625 324.6875 -366.421875 L 324.6875 -425.59375 L 473.375 -425.59375 L 473.375 -4.546875 C 473.375 35.398438 465.785156 71.429688 450.609375 103.546875 C 435.441406 135.660156 411.800781 161.328125 379.6875 180.546875 C 347.570312 199.765625 306.988281 209.375 257.9375 209.375 C 192.1875 209.375 139.585938 193.945312 100.140625 163.09375 C 60.691406 132.25 38.1875 90.273438 32.625 37.171875 L 179.03125 37.171875 C 182.070312 50.828125 189.660156 61.445312 201.796875 69.03125 C 213.929688 76.625 229.609375 80.421875 248.828125 80.421875 C 299.398438 80.421875 324.6875 52.097656 324.6875 -4.546875 L 324.6875 -59.171875 C 313.0625 -39.453125 296.5 -23.773438 275 -12.140625 C 253.507812 -0.503906 228.347656 5.3125 199.515625 5.3125 C 165.628906 5.3125 134.90625 -3.535156 107.34375 -21.234375 C 79.78125 -38.941406 58.03125 -64.359375 42.09375 -97.484375 C 26.164062 -130.609375 18.203125 -169.171875 18.203125 -213.171875 C 18.203125 -257.171875 26.164062 -295.609375 42.09375 -328.484375 C 58.03125 -361.359375 79.78125 -386.644531 107.34375 -404.34375 C 134.90625 -422.050781 165.628906 -430.90625 199.515625 -430.90625 Z M 324.6875 -213.171875 C 324.6875 -240.484375 317.226562 -261.976562 302.3125 -277.65625 C 287.394531 -293.332031 269.0625 -301.171875 247.3125 -301.171875 C 225.0625 -301.171875 206.601562 -293.457031 191.9375 -278.03125 C 177.269531 -262.601562 169.9375 -240.984375 169.9375 -213.171875 C 169.9375 -185.859375 177.269531 -164.238281 191.9375 -148.3125 C 206.601562 -132.382812 225.0625 -124.421875 247.3125 -124.421875 C 269.0625 -124.421875 287.394531 -132.257812 302.3125 -147.9375 C 317.226562 -163.613281 324.6875 -185.359375 324.6875 -213.171875 Z M 324.6875 -213.171875 "/></g></g></g><g fill="#ffffff" fill-opacity="1"><g transform="translate(4574.586049, 1663.039184)"><g><path d="M 240.484375 5.3125 C 198.003906 5.3125 159.945312 -3.535156 126.3125 -21.234375 C 92.675781 -38.941406 66.25 -64.234375 47.03125 -97.109375 C 27.8125 -129.984375 18.203125 -168.671875 18.203125 -213.171875 C 18.203125 -257.171875 27.9375 -295.609375 47.40625 -328.484375 C 66.882812 -361.359375 93.4375 -386.644531 127.0625 -404.34375 C 160.695312 -422.050781 198.757812 -430.90625 241.25 -430.90625 C 283.726562 -430.90625 321.78125 -422.050781 355.40625 -404.34375 C 389.039062 -386.644531 415.59375 -361.359375 435.0625 -328.484375 C 454.539062 -295.609375 464.28125 -257.171875 464.28125 -213.171875 C 464.28125 -169.171875 454.539062 -130.609375 435.0625 -97.484375 C 415.59375 -64.359375 388.914062 -38.941406 355.03125 -21.234375 C 321.144531 -3.535156 282.960938 5.3125 240.484375 5.3125 Z M 240.484375 -123.65625 C 261.222656 -123.65625 278.546875 -131.367188 292.453125 -146.796875 C 306.359375 -162.222656 313.3125 -184.347656 313.3125 -213.171875 C 313.3125 -242.003906 306.359375 -264.003906 292.453125 -279.171875 C 278.546875 -294.347656 261.476562 -301.9375 241.25 -301.9375 C 221.007812 -301.9375 204.0625 -294.347656 190.40625 -279.171875 C 176.757812 -264.003906 169.9375 -242.003906 169.9375 -213.171875 C 169.9375 -183.835938 176.507812 -161.582031 189.65625 -146.40625 C 202.800781 -131.238281 219.742188 -123.65625 240.484375 -123.65625 Z M 240.484375 -123.65625 "/></g></g></g><g clip-path="url(#id3)"><path fill="#ffffff" d="M 214.5625 1403.105469 L 283.820312 1455.742188 L 257.3125 1370.742188 L 326.570312 1319.273438 L 241.632812 1319.273438 L 214.5625 1231.542969 L 187.496094 1319.273438 L 102.558594 1319.273438 L 171.816406 1370.742188 L 145.402344 1455.742188 Z M 214.5625 1403.105469 " fill-opacity="1" fill-rule="nonzero"/></g><g clip-path="url(#id4)"><path fill="#ffffff" d="M 384.816406 1403.105469 L 454.074219 1455.742188 L 427.566406 1370.742188 L 496.820312 1319.273438 L 411.886719 1319.273438 L 384.816406 1231.542969 L 357.75 1319.273438 L 272.8125 1319.273438 L 342.070312 1370.742188 L 315.65625 1455.742188 Z M 384.816406 1403.105469 " fill-opacity="1" fill-rule="nonzero"/></g><g clip-path="url(#id5)"><path fill="#ffffff" d="M 560.613281 1403.105469 L 629.871094 1455.742188 L 603.363281 1370.742188 L 672.621094 1319.273438 L 587.683594 1319.273438 L 560.613281 1231.542969 L 533.546875 1319.273438 L 448.609375 1319.273438 L 517.867188 1370.742188 L 491.453125 1455.742188 Z M 560.613281 1403.105469 " fill-opacity="1" fill-rule="nonzero"/></g><g clip-path="url(#id6)"><path fill="#ffffff" d="M 1054.125 1242.546875 L 1136.4375 1305.019531 L 1104.933594 1204.136719 L 1187.242188 1143.050781 L 1086.296875 1143.050781 L 1054.125 1038.925781 L 1021.957031 1143.050781 L 921.007812 1143.050781 L 1003.320312 1204.136719 L 971.925781 1305.019531 Z M 1054.125 1242.546875 " fill-opacity="1" fill-rule="nonzero"/></g><g clip-path="url(#id7)"><path fill="#ffffff" d="M 1288.453125 1242.546875 L 1370.765625 1305.019531 L 1339.261719 1204.136719 L 1421.570312 1143.050781 L 1320.625 1143.050781 L 1288.453125 1038.925781 L 1256.285156 1143.050781 L 1155.335938 1143.050781 L 1237.648438 1204.136719 L 1206.253906 1305.019531 Z M 1288.453125 1242.546875 " fill-opacity="1" fill-rule="nonzero"/></g><g clip-path="url(#id8)"><path fill="#ffffff" d="M 1535.9375 1242.546875 L 1618.246094 1305.019531 L 1586.742188 1204.136719 L 1669.054688 1143.050781 L 1568.105469 1143.050781 L 1535.9375 1038.925781 L 1503.765625 1143.050781 L 1402.820312 1143.050781 L 1485.128906 1204.136719 L 1453.738281 1305.019531 Z M 1535.9375 1242.546875 " fill-opacity="1" fill-rule="nonzero"/></g></svg>